<svg width="602" height="571" viewBox="0 0 602 571" fill="none" xmlns="http://www.w3.org/2000/svg">
<g clip-path="url(#clip0_281_292)">
<path d="M301 488.274C429.927 488.274 534.444 482.486 534.444 475.346C534.444 468.206 429.927 462.419 301 462.419C172.073 462.419 67.5565 468.206 67.5565 475.346C67.5565 482.486 172.073 488.274 301 488.274Z" fill="#F5F5F5"/>
<path d="M602.144 436.198H0.14447V436.484H602.144V436.198Z" fill="#E0E0E0"/>
<path d="M131.886 449.891H62.3311V450.176H131.886V449.891Z" fill="#E0E0E0"/>
<path d="M283.879 443.69H252.19V443.975H283.879V443.69Z" fill="#E0E0E0"/>
<path d="M357.203 443.541H295.462V443.827H357.203V443.541Z" fill="#E0E0E0"/>
<path d="M474.725 446.967H459.687V447.253H474.725V446.967Z" fill="#E0E0E0"/>
<path d="M407.759 446.967H347.775V447.253H407.759V446.967Z" fill="#E0E0E0"/>
<path d="M155.46 449.891H143.541V450.176H155.46V449.891Z" fill="#E0E0E0"/>
<path d="M536.623 446.967H484.55V447.253H536.623V446.967Z" fill="#E0E0E0"/>
<path d="M285.492 62.3075H52.976C51.5124 62.3088 50.0873 62.7523 48.9074 63.5737C47.7276 64.395 46.8542 65.5516 46.4142 66.8755C46.2158 67.4703 46.1143 68.0903 46.1132 68.7141V378.744C46.1132 380.472 46.8358 382.129 48.1225 383.351C49.4092 384.574 51.1547 385.262 52.976 385.265H285.492C287.316 385.265 289.064 384.578 290.354 383.355C291.643 382.132 292.367 380.474 292.367 378.744V68.8283C292.367 67.0989 291.643 65.4403 290.354 64.2174C289.064 62.9945 287.316 62.3075 285.492 62.3075ZM292.066 378.744C292.063 380.397 291.369 381.981 290.137 383.15C288.905 384.319 287.235 384.977 285.492 384.98H52.976C51.2346 384.977 49.5656 384.318 48.3353 383.149C47.1051 381.98 46.4142 380.396 46.4142 378.744V68.7712C46.4142 67.1195 47.1051 65.5353 48.3353 64.3662C49.5656 63.1972 51.2346 62.5389 52.976 62.5359H285.492C287.234 62.5419 288.902 63.2008 290.134 64.3689C291.365 65.5369 292.06 67.1194 292.066 68.7712V378.744Z" fill="#E0E0E0"/>
<path d="M545.93 62.3075H313.437C311.625 62.3104 309.888 62.9906 308.601 64.2005C307.314 65.4104 306.582 67.0527 306.562 68.7712V378.744C306.563 380.474 307.287 382.132 308.576 383.355C309.865 384.578 311.614 385.265 313.437 385.265H545.93C547.749 385.259 549.491 384.569 550.775 383.347C552.06 382.125 552.781 380.47 552.781 378.744V68.7712C552.765 67.0557 552.037 65.4151 550.754 64.2052C549.472 62.9953 547.738 62.3135 545.93 62.3075ZM552.504 378.744C552.5 380.397 551.807 381.981 550.575 383.15C549.342 384.319 547.672 384.977 545.93 384.98H313.437C311.694 384.98 310.022 384.323 308.789 383.153C307.556 381.984 306.863 380.398 306.863 378.744V68.7712C306.867 67.1185 307.56 65.5342 308.792 64.3655C310.025 63.1968 311.695 62.5389 313.437 62.5359H545.93C547.671 62.5419 549.34 63.2008 550.571 64.3689C551.803 65.5369 552.497 67.1194 552.504 68.7712V378.744Z" fill="#E0E0E0"/>
<path d="M446.865 118.414H574.308C574.308 118.414 566.614 105.19 550.746 109.278C550.746 109.278 552.672 87.1803 540.163 83.6401C527.653 80.0999 520.899 93.7696 520.899 93.7696C520.899 93.7696 512.242 68.2231 495.892 71.4207C479.541 74.6183 472.811 101.113 472.811 101.113C472.811 101.113 448.791 92.8675 446.865 118.414Z" fill="#F5F5F5"/>
<path d="M262.604 161.662H390.096C390.096 161.662 382.39 148.426 366.522 152.526C366.522 152.526 368.448 130.428 355.939 126.876C343.429 123.325 336.675 137.017 336.675 137.017C336.675 137.017 328.018 111.471 311.667 114.657C295.317 117.843 288.575 144.349 288.575 144.349C288.575 144.349 264.531 136.115 262.604 161.662Z" fill="#F5F5F5"/>
<path d="M260.293 80.1684H46.5466V436.198H260.293V80.1684Z" fill="#F5F5F5"/>
<path d="M224.678 193.866H89.1803V436.484H224.678V193.866Z" fill="#FAFAFA"/>
<path d="M216.118 201.574H98.9447V436.484H216.118V201.574Z" fill="#E6E6E6"/>
<path d="M268.034 82.7607H46.4985V66.9326C47.0561 65.5557 48.0505 64.3768 49.3444 63.5586C50.6383 62.7404 52.168 62.3233 53.7225 62.3646H260.461L260.558 62.593L265.988 77.2906L268.034 82.7607Z" fill="#EBEBEB"/>
<path d="M57.2381 92.3193C63.3623 92.3193 68.327 88.0398 68.327 82.7608C68.327 77.4817 63.3623 73.2022 57.2381 73.2022C51.1139 73.2022 46.1493 77.4817 46.1493 82.7608C46.1493 88.0398 51.1139 92.3193 57.2381 92.3193Z" fill="#EBEBEB"/>
<path d="M79.4279 92.3193C85.5521 92.3193 90.5167 88.0398 90.5167 82.7608C90.5167 77.4817 85.5521 73.2022 79.4279 73.2022C73.3037 73.2022 68.3391 77.4817 68.3391 82.7608C68.3391 88.0398 73.3037 92.3193 79.4279 92.3193Z" fill="#EBEBEB"/>
<path d="M101.618 92.3193C107.742 92.3193 112.706 88.0398 112.706 82.7608C112.706 77.4817 107.742 73.2022 101.618 73.2022C95.4934 73.2022 90.5287 77.4817 90.5287 82.7608C90.5287 88.0398 95.4934 92.3193 101.618 92.3193Z" fill="#EBEBEB"/>
<path d="M123.807 92.3193C129.931 92.3193 134.896 88.0398 134.896 82.7608C134.896 77.4817 129.931 73.2022 123.807 73.2022C117.683 73.2022 112.718 77.4817 112.718 82.7608C112.718 88.0398 117.683 92.3193 123.807 92.3193Z" fill="#EBEBEB"/>
<path d="M145.997 92.3193C152.121 92.3193 157.086 88.0398 157.086 82.7608C157.086 77.4817 152.121 73.2022 145.997 73.2022C139.873 73.2022 134.908 77.4817 134.908 82.7608C134.908 88.0398 139.873 92.3193 145.997 92.3193Z" fill="#EBEBEB"/>
<path d="M168.187 92.3193C174.311 92.3193 179.276 88.0398 179.276 82.7608C179.276 77.4817 174.311 73.2022 168.187 73.2022C162.063 73.2022 157.098 77.4817 157.098 82.7608C157.098 88.0398 162.063 92.3193 168.187 92.3193Z" fill="#EBEBEB"/>
<path d="M190.364 92.3193C196.489 92.3193 201.453 88.0398 201.453 82.7608C201.453 77.4817 196.489 73.2022 190.364 73.2022C184.24 73.2022 179.276 77.4817 179.276 82.7608C179.276 88.0398 184.24 92.3193 190.364 92.3193Z" fill="#EBEBEB"/>
<path d="M212.554 92.3193C218.678 92.3193 223.643 88.0398 223.643 82.7608C223.643 77.4817 218.678 73.2022 212.554 73.2022C206.43 73.2022 201.465 77.4817 201.465 82.7608C201.465 88.0398 206.43 92.3193 212.554 92.3193Z" fill="#EBEBEB"/>
<path d="M234.744 92.3193C240.868 92.3193 245.833 88.0398 245.833 82.7608C245.833 77.4817 240.868 73.2022 234.744 73.2022C228.62 73.2022 223.655 77.4817 223.655 82.7608C223.655 88.0398 228.62 92.3193 234.744 92.3193Z" fill="#EBEBEB"/>
<path d="M268.035 82.7608C268.035 88.0368 263.062 92.3193 256.934 92.3193C250.805 92.3193 245.833 88.0368 245.833 82.7608C245.833 77.4847 250.805 73.2022 256.934 73.2022C258.666 73.179 260.382 73.5298 261.95 74.2282C263.519 74.9266 264.9 75.9543 265.988 77.2335L268.035 82.7608Z" fill="#EBEBEB"/>
<path d="M260.293 111.071H46.5466V114.406H260.293V111.071Z" fill="#FAFAFA"/>
<path d="M426.096 360.735H260.305V367.804H426.096V360.735Z" fill="#E0E0E0"/>
<path d="M295.173 436.187H270.141V325.995L282.651 315.854L295.173 325.995V436.187Z" fill="#E6E6E6"/>
<path d="M331.028 436.187H305.997V325.995L318.518 315.854L331.028 325.995V436.187Z" fill="#E6E6E6"/>
<path d="M366.895 436.187H341.864V325.995L354.373 315.854L366.895 325.995V436.187Z" fill="#E6E6E6"/>
<path d="M402.75 436.187H377.719V325.995L390.24 315.854L402.75 325.995V436.187Z" fill="#E6E6E6"/>
<path d="M438.605 436.187H413.586V325.995L426.096 315.854L438.605 325.995V436.187Z" fill="#E6E6E6"/>
<path d="M179.962 102.3C179.962 102.3 177.638 96.9101 163.323 98.5089C149.007 100.108 147.526 118.083 140.374 130.862C133.223 143.641 125.625 149.842 125.625 149.842C125.625 149.842 124.578 157.63 140.158 162.027C155.737 166.424 186.271 159.081 186.271 159.081C186.271 159.081 190.22 125.06 184.356 114.68C178.493 104.299 179.962 102.3 179.962 102.3Z" fill="#263238"/>
<path d="M221.813 442.125L202.416 443.267C202.416 443.267 194.193 372.372 185.139 320.754C185.139 320.582 185.139 320.388 185.055 320.194C181.346 299.124 177.506 281.366 174.038 273.041C174.038 273.041 169.583 339.128 168.259 368.466C166.935 397.804 160.758 449.137 160.758 449.137L142.831 451.661C142.831 451.661 139.869 349.475 141.627 330.175C143.384 310.875 135.378 239.386 149.176 221.685H199.081C199.081 221.685 218.406 322.113 219.802 349.954C221.199 377.796 221.813 442.125 221.813 442.125Z" fill="#263238"/>
<path d="M156.544 449.366L156.255 454.847L155.581 467.535L145.54 468.951L145.311 455.258L145.227 449.994L156.544 449.366Z" fill="#FF8B7B"/>
<path d="M217.503 463.264L206.269 466.233C206.269 466.233 206.004 459.826 205.74 453.671C205.571 449.708 205.402 445.848 205.294 443.873C205.294 443.107 205.222 442.639 205.198 442.536L217.31 441.394V445.003L217.394 453.157L217.503 463.264Z" fill="#FF8B7B"/>
<path d="M159.626 464.725C159.626 464.725 161.493 457.634 164.442 457.988C167.392 458.342 159.626 464.725 159.626 464.725Z" stroke="#407BFF" stroke-miterlimit="10"/>
<path d="M160.469 464.725C160.469 464.725 167.488 460.032 168.789 462.441C170.089 464.851 160.469 464.725 160.469 464.725Z" stroke="#407BFF" stroke-miterlimit="10"/>
<path d="M221.813 465.445C221.813 465.445 223.378 457.942 225.148 457.942C226.918 457.942 221.813 465.445 221.813 465.445Z" stroke="#407BFF" stroke-miterlimit="10"/>
<path d="M221.44 467.775C221.44 467.775 225.557 460.089 227.713 461.745C229.868 463.401 221.44 467.775 221.44 467.775Z" stroke="#407BFF" stroke-miterlimit="10"/>
<path d="M168.391 473.93C168.391 473.93 146.984 474.455 145.431 474.273C143.878 474.09 142.156 474.01 142.036 472.411C142.036 471.635 142.77 466.918 142.891 465.274C143.011 463.629 142.578 462.773 144.757 462.247C146.936 461.722 157.519 460.557 158.796 461.802C160.072 463.047 164.43 467.786 167.657 468.334C170.884 468.882 173.593 468.665 173.821 470.401C174.05 472.137 174.122 473.804 168.391 473.93Z" fill="#263238"/>
<path d="M230.024 473.93C230.024 473.93 208.629 474.455 207.064 474.273C205.499 474.09 203.958 473.644 203.705 472.902C203.452 472.16 204.415 466.918 204.524 465.274C204.632 463.629 204.21 462.773 206.39 462.247C208.569 461.722 219.152 460.557 220.428 461.802C221.705 463.047 226.063 467.786 229.302 468.334C232.541 468.882 235.226 468.665 235.454 470.401C235.683 472.137 235.755 473.804 230.024 473.93Z" fill="#263238"/>
<path opacity="0.3" d="M185.055 320.183C181.346 299.113 177.506 281.355 174.038 273.029L176.338 261.061C176.338 261.061 182.298 303.772 185.055 320.183Z" fill="black"/>
<path opacity="0.2" d="M156.52 449.366L156.231 454.847C153.414 454.95 147.803 455.144 145.287 455.258L145.202 449.994L156.52 449.366Z" fill="black"/>
<path opacity="0.2" d="M217.418 453.146L205.74 453.671C205.571 449.708 205.402 445.848 205.294 443.873L217.334 445.015L217.418 453.146Z" fill="black"/>
<path d="M225.124 441.383L223.33 450.074L201.947 451.65L199.142 441.383H225.124Z" fill="#407BFF"/>
<path d="M163.636 444.215L161.757 452.803L139.435 453.808L139.447 444.215H163.636Z" fill="#407BFF"/>
<path d="M229.844 195.156C225.028 197.338 211.784 199.724 211.784 199.724C211.784 199.724 203.115 178.472 200.827 166.389C200.109 162.07 197.934 158.088 194.628 155.04C191.322 151.993 187.063 150.045 182.49 149.488C176.639 148.768 151.933 149.008 143.264 150.698C134.595 152.388 133.09 164.459 132.32 171.711C131.549 178.963 126.721 205.971 130.791 213.965C134.86 221.959 149.127 218.784 149.127 218.784V221.685H199.045L197.841 199.53C197.841 199.53 202.561 211.293 209.881 211.772C217.202 212.252 233.817 200.672 233.817 200.672L229.844 195.156ZM141.952 207.547C141.952 207.547 142.505 193.752 143.493 189.778L144.998 197.143L147.117 207.547H141.952Z" fill="#407BFF"/>
<path d="M173.701 204.418L181.551 195.408L192.568 193.809L194.253 203.093L185.825 206.017C185.825 206.017 181.768 210.653 173.665 209.854L173.701 204.418Z" fill="#FF8B7B"/>
<path d="M229.844 195.156L233.925 188.053L243.882 184.079L247.651 193.752L239.403 196.801C239.403 196.801 237.248 201.3 233.925 200.718L229.844 195.156Z" fill="#FF8B7B"/>
<path d="M173.87 140.831C173.816 141.653 173.816 142.477 173.87 143.298C173.99 144.863 173.677 147.729 176.916 149.237C175.242 152.663 171.209 161.25 168.765 164.162C165.044 161.273 156.303 149.613 156.303 149.613C156.303 149.613 162.444 143.298 158.037 131.399C158.037 131.399 151.849 127.105 153.089 124.741C154.509 121.988 158.543 123.473 159.398 124.638C158.495 123.382 154.293 109.598 159.398 104.527C162.576 101.364 165.755 101.33 171.678 101.101H172.172C175.965 100.976 178.782 101.101 178.782 101.101C180.07 102.417 181.204 103.86 182.165 105.407C184.852 109.566 186.499 114.254 186.981 119.111C188.101 130.428 185.753 139.598 173.87 140.831Z" fill="#FF8B7B"/>
<path d="M177.145 126.762C177.145 126.762 171.751 128.498 169.788 124.615" stroke="#263238" stroke-width="0.5" stroke-linecap="round" stroke-linejoin="round"/>
<path d="M170.631 110.431C169.729 110.406 168.837 110.622 168.058 111.054C167.279 111.486 166.644 112.117 166.224 112.875" stroke="#263238" stroke-linecap="round" stroke-linejoin="round"/>
<path d="M184.356 109.255C183.919 108.801 183.39 108.436 182.8 108.181C182.211 107.926 181.573 107.786 180.925 107.771" stroke="#263238" stroke-linecap="round" stroke-linejoin="round"/>
<path d="M179.396 124.661L178.336 116.107L183.646 122.571C183.646 122.571 183.128 124.798 179.396 124.661Z" fill="#FF5652"/>
<path d="M170.679 116.176C170.739 117.044 171.281 117.717 171.883 117.683C172.485 117.649 172.906 116.907 172.834 116.027C172.762 115.148 172.244 114.485 171.63 114.531C171.016 114.577 170.607 115.342 170.679 116.176Z" fill="#263238"/>
<path d="M181.178 114.748C181.25 115.628 181.78 116.301 182.382 116.256C182.984 116.21 183.405 115.479 183.333 114.6C183.261 113.72 182.731 113.058 182.129 113.104C181.527 113.149 181.118 113.88 181.178 114.748Z" fill="#263238"/>
<path d="M155.737 118.311C155.737 118.311 149.585 110.488 154.666 105.418C157.844 102.255 166.393 100.188 172.304 99.9478C172.172 101.273 172.304 112.875 155.737 118.311Z" fill="#263238"/>
<path d="M182.262 105.441C178.482 105.079 174.934 103.541 172.172 101.067L171.702 100.599C174.074 100.506 176.449 100.667 178.782 101.078C180.07 102.394 181.204 103.837 182.165 105.384L182.262 105.441Z" fill="#263238"/>
<path opacity="0.2" d="M173.906 143.298C171.289 142.544 168.968 141.069 167.236 139.061C169.309 140.043 171.56 140.644 173.87 140.831C173.828 141.654 173.84 142.477 173.906 143.298Z" fill="black"/>
<path opacity="0.2" d="M145.01 197.143L143.505 189.778V179.203C143.505 179.203 145.239 190.36 145.01 197.143Z" fill="black"/>
<path d="M366.279 162.931L278.516 167.644L282.34 231.71L370.103 226.998L366.279 162.931Z" fill="#407BFF"/>
<path opacity="0.3" d="M366.279 162.931L278.516 167.644L282.34 231.71L370.103 226.998L366.279 162.931Z" fill="black"/>
<path d="M334.382 164.65L246.618 169.362L250.442 233.429L338.206 228.716L334.382 164.65Z" fill="#407BFF"/>
<path opacity="0.3" d="M334.382 164.65L246.618 169.362L250.442 233.429L338.206 228.716L334.382 164.65Z" fill="white"/>
<path opacity="0.3" d="M345.239 170.186L326.505 171.252L326.884 177.248L345.618 176.182L345.239 170.186Z" fill="black"/>
<path opacity="0.5" d="M270.802 176.081L252.098 177.085L252.677 186.777L271.381 185.773L270.802 176.081Z" fill="white"/>
<path opacity="0.3" d="M277.335 201.354L248.629 202.895L249.081 210.454L277.786 208.913L277.335 201.354Z" fill="black"/>
<path d="M391.637 110.123L386.821 115.947C388.155 116.831 389.689 117.406 391.3 117.626L391.637 110.123Z" fill="#A02724"/>
<path d="M474.761 467.318L460.771 466.564L457.929 455.247L456.376 449.046L455.798 446.762L466.562 446.065L467.333 446.008L469.62 452.575L474.761 467.318Z" fill="#B55B52"/>
<path d="M394.31 469.179C394.575 470.081 381.319 468.471 381.319 468.471L380.849 457.908L380.488 449.754V449.308H380.596L394.057 450.576C394.057 450.576 394.057 454.002 394.057 457.896C394.081 462.898 394.153 468.688 394.31 469.179Z" fill="#B55B52"/>
<path d="M422.387 140.751C422.387 140.751 403.484 145.605 404.881 142.088C405.585 139.959 405.866 137.725 405.712 135.498C405.712 134.037 405.519 132.997 405.519 132.997C398.68 133.374 394.081 128.681 392.034 122.902C389.398 115.49 390.361 107.211 393.563 100.176C393.816 99.6052 394.539 97.1842 395.177 96.8873L402.593 93.644C402.593 93.644 409.817 98.1321 413.574 100.919C417.33 103.705 420.352 116.655 420.352 126.728C420.352 136.8 422.387 140.751 422.387 140.751Z" fill="#B55B52"/>
<path d="M391.071 107.988C390.737 108.074 390.441 108.259 390.224 108.515C390.008 108.772 389.883 109.087 389.867 109.415C389.818 109.72 389.867 110.032 390.009 110.309C390.151 110.587 390.379 110.816 390.662 110.968L391.071 107.988Z" fill="#263238"/>
<path d="M391.071 102.186C391.858 102.169 392.632 102.372 393.299 102.769" stroke="#263238" stroke-linecap="round" stroke-linejoin="round"/>
<path d="M397.645 120.721C397.645 120.721 403.135 128.852 411.876 130.713C420.617 132.575 423.374 129.697 424.542 125.003C425.554 120.578 427.795 116.489 431.032 113.161C434.054 110.203 432.236 102.175 428.395 95.574C428.395 95.574 432.513 92.2964 425.879 89.1445C419.245 85.9926 416.801 91.2344 411.046 88.1738C405.29 85.1133 412.972 84.0969 407.542 93.644C402.112 103.191 399.114 96.2478 398.307 100.496C397.501 104.744 393.299 112.122 397.645 120.721Z" fill="#263238"/>
<path d="M398.307 102.472C397.766 102.3 380.356 96.3277 380.187 93.6212C380.019 90.9146 393.684 95.8366 394.202 96.0308L397.729 101.318L398.307 102.472Z" fill="#407BFF"/>
<path d="M433.44 109.015C433.271 109.506 432.236 112.761 431.791 112.761L430.334 112.681C428.977 112.575 427.629 112.426 426.288 112.236C424.807 112.019 423.35 111.745 421.918 111.425H421.858C420.401 111.094 418.968 110.728 417.571 110.283C414.143 109.301 410.778 108.13 407.494 106.777C405.64 106.012 404.002 105.27 402.678 104.63C399.969 103.351 398.355 102.449 398.355 102.449L398.115 102.072L397.127 100.599L395.02 97.4354L394.298 96.3734V96.2934C394.264 96.1971 394.264 96.0929 394.298 95.9965C394.37 94.786 396.983 91.4285 397.452 90.8575C399.386 88.406 401.849 86.3737 404.676 84.8963C408.553 82.8635 412.924 83.7543 417.042 84.4395C418.404 84.7078 419.732 85.1136 421.003 85.65L421.809 85.9812L421.966 86.0497C422.11 86.1296 422.267 86.1867 422.411 86.2553L422.676 86.3809C425.736 87.74 428.52 89.5994 430.9 91.8739C436.318 97.641 434.114 107.154 433.44 109.015Z" fill="#407BFF"/>
<path d="M427.552 146.884C427.552 146.884 426.685 141.174 424.795 140.032C422.905 138.89 404.123 139.061 401.197 141.014C398.271 142.967 398.789 149.351 398.789 149.351L427.552 146.884Z" fill="#407BFF"/>
<path d="M394.214 111.699C394.214 111.699 397.416 107.771 400.848 110.203C404.279 112.635 401.558 118.403 397.525 120.024C397.525 120.024 392.311 121.634 391.637 116.598C390.963 111.562 394.214 111.699 394.214 111.699Z" fill="#B55B52"/>
<path d="M381.367 248.419C381.367 248.419 374.203 313.433 372.205 343.331C370.206 373.228 377.55 449.685 377.55 449.685H394.972C394.972 449.685 396.971 373.731 399.981 350.948C402.991 328.165 412.984 297.274 412.984 297.274C412.984 297.274 419.004 346.163 425.024 366.102C431.044 386.042 450.597 446.956 450.597 446.956L470.656 443.302C470.656 443.302 446.576 365.154 446.576 340.944C446.576 316.734 446.804 267.856 440.808 248.442L381.367 248.419Z" fill="#407BFF"/>
<path opacity="0.3" d="M470.62 443.324L450.573 446.99C450.573 446.99 431.032 386.076 425.012 366.137C421.701 355.173 418.402 335.428 416.102 319.886C414.176 307.198 412.972 297.308 412.972 297.308C412.972 297.308 402.967 328.142 399.957 350.982C396.947 373.822 394.96 449.72 394.96 449.72H377.55C377.55 449.72 370.206 373.274 372.205 343.377C374.203 313.479 381.367 248.454 381.367 248.454H440.748C446.768 267.868 446.527 316.802 446.527 340.956C446.527 365.109 470.62 443.324 470.62 443.324Z" fill="black"/>
<path opacity="0.3" d="M416.09 319.886C414.176 307.198 412.972 297.308 412.972 297.308L414.176 279.562L416.09 319.886Z" fill="black"/>
<path d="M375.66 446.511H396.537L395.514 454.664H376.479L375.66 446.511Z" fill="#263238"/>
<path d="M448.057 445.323L470.632 437.363L473.485 448.943L451.452 454.664L448.057 445.323Z" fill="#263238"/>
<path opacity="0.2" d="M466.562 446.065L456.376 449.046L457.929 455.247L469.62 452.575L466.562 446.065Z" fill="black"/>
<path opacity="0.2" d="M394.057 457.942H380.813L380.452 449.788L380.536 449.354L393.997 450.622C393.997 450.622 394.033 454.002 394.057 457.942Z" fill="black"/>
<path d="M374.444 473.233C374.528 473.45 366.112 468.802 368.424 466.633C370.736 464.463 374.444 473.233 374.444 473.233Z" stroke="#407BFF" stroke-miterlimit="10"/>
<path d="M375.648 472.902C375.588 473.131 370.952 465.011 374.107 464.292C377.261 463.572 375.648 472.902 375.648 472.902Z" stroke="#407BFF" stroke-miterlimit="10"/>
<path d="M458.832 468.3C458.832 468.3 456.075 459.883 453.402 461.265C450.729 462.647 458.832 468.3 458.832 468.3Z" stroke="#407BFF" stroke-miterlimit="10"/>
<path d="M458.086 469.031C458.086 469.031 451.861 462.51 450.043 464.794C448.225 467.078 458.086 469.031 458.086 469.031Z" stroke="#407BFF" stroke-miterlimit="10"/>
<path d="M475.279 466.541H460.325C460.325 466.541 451.681 471.475 447.888 471.932C444.095 472.388 441.868 472.605 441.976 475.186C442.085 477.767 444.384 477.996 452.15 477.881C459.916 477.767 475.327 478.669 477.001 477.208C478.674 475.746 477.615 472.994 475.279 466.541Z" fill="#263238"/>
<path d="M394.31 468.3L379.862 468.403C379.862 468.403 371.217 473.336 367.437 473.793C363.656 474.25 361.417 474.467 361.513 477.048C361.609 479.629 363.921 479.857 371.699 479.743C379.477 479.629 393.19 480.691 394.864 479.229C396.537 477.767 395.61 475.369 394.31 468.3Z" fill="#263238"/>
<path opacity="0.3" d="M394.202 96.0308C394.575 97.8466 394.96 99.2398 398.127 102.403C394.105 100.987 380.331 95.9394 380.187 93.6212C380.043 91.3029 390.734 94.786 394.202 96.0308Z" fill="black"/>
<path opacity="0.3" d="M394.202 96.3163C394.168 96.2199 394.168 96.1157 394.202 96.0194C394.202 96.0194 394.202 96.145 394.202 96.3848V96.3163Z" fill="black"/>
<path opacity="0.3" d="M398.307 102.472L397.934 102.335C397.953 102.287 397.977 102.241 398.006 102.198L398.307 102.472Z" fill="black"/>
<path d="M433.44 109.015C433.271 109.506 432.236 112.761 431.791 112.761L430.334 112.681C428.977 112.575 427.629 112.426 426.288 112.236C424.807 112.019 423.35 111.745 421.918 111.425H421.858C420.401 111.094 418.968 110.728 417.571 110.283C414.143 109.301 410.778 108.13 407.494 106.777C405.64 106.012 404.002 105.27 402.678 104.63C399.969 103.351 398.355 102.449 398.355 102.449L398.115 102.072L397.127 100.599L395.02 97.4354L394.298 96.3734V96.2934C394.264 96.1971 394.264 96.0929 394.298 95.9965C394.37 94.786 396.983 91.4285 397.452 90.8575C399.386 88.406 401.849 86.3737 404.676 84.8963C408.553 82.8635 412.924 83.7543 417.042 84.4395C418.404 84.7078 419.732 85.1136 421.003 85.65L421.809 85.9812L421.966 86.0497C422.11 86.1296 422.267 86.1867 422.411 86.2553L422.676 86.3809C425.736 87.74 428.52 89.5994 430.9 91.8739C436.318 97.641 434.114 107.154 433.44 109.015Z" fill="#407BFF"/>
<path opacity="0.2" d="M409.757 131.901C408.476 133.166 407.125 134.367 405.712 135.498C405.712 134.037 405.519 132.997 405.519 132.997C406.972 132.788 408.394 132.42 409.757 131.901Z" fill="black"/>
<path d="M381.367 249.059V190.566L370.11 186.215C370.11 186.215 372.265 155.004 388.29 150.082C404.315 145.16 432.838 143.093 440.688 150.082C445.649 154.524 446.311 161.65 446.491 167.76C446.877 180.208 443.445 192.381 442.687 204.761C442.085 214.833 441.724 224.905 441.483 234.989C441.483 235.766 441.17 249.059 441.146 249.059H381.367Z" fill="#263238"/>
<path d="M387.531 192.564C387.531 192.564 379.2 218.67 370.964 220.303C362.729 221.936 334.604 207.376 334.604 207.376H322.046L320.264 196.904C320.264 196.904 331.955 192.792 339.745 197.714C339.745 197.714 357.937 205.24 363.993 207.433L372.77 187.288L387.531 192.564Z" fill="#B55B52"/>
</g>
<defs>
<clipPath id="clip0_281_292">
<rect width="602" height="571" fill="white"/>
</clipPath>
</defs>
</svg>
