<svg width="577" height="266" viewBox="0 0 577 266" fill="none" xmlns="http://www.w3.org/2000/svg">
<path d="M576 24.1779L481.599 1L504.194 27.9398L576 24.1779Z" fill="white" stroke="#263238" stroke-linecap="round" stroke-linejoin="round"/>
<path d="M504.194 27.9397L503.488 46.0664L576 24.1779L504.194 27.9397Z" fill="white" stroke="#263238" stroke-linecap="round" stroke-linejoin="round"/>
<path d="M512.743 36.9955L503.488 46.0664L576 24.1779L512.743 36.9955Z" fill="white" stroke="#263238" stroke-linecap="round" stroke-linejoin="round"/>
<path d="M576 24.1779L512.743 36.9955L529.234 63.5561L576 24.1779Z" fill="white" stroke="#263238" stroke-linecap="round" stroke-linejoin="round"/>
<path d="M488.655 41.9102L486.226 42.2136" stroke="#263238" stroke-linecap="round" stroke-linejoin="round"/>
<path d="M481.369 42.8507C427.515 49.9497 90.9982 97.0487 20.7183 173.56C-41.7673 241.592 62.0691 260.644 86.3545 264.087" stroke="white" stroke-linecap="round" stroke-linejoin="round" stroke-dasharray="2.99 2.99"/>
<path d="M88.6517 264.406C90.2106 264.618 91.0802 264.694 91.0802 264.694" stroke="#263238" stroke-linecap="round" stroke-linejoin="round"/>
</svg>
