<svg width="612" height="606" viewBox="0 0 612 606" fill="none" xmlns="http://www.w3.org/2000/svg">
<path d="M471.424 111.31C457.849 82.9007 444.496 56.3822 402.255 51.6796C369.146 48.0436 331.178 47.8133 300.822 63.4845C274.458 77.1074 264.384 108.122 238.79 122.521C218.753 133.78 194.053 131.005 171.14 128.654C123.832 123.806 78.336 141.586 53.501 183.763C32.693 219.105 33.0357 265.695 54.3945 300.709C62.8646 314.611 74.2234 326.573 83.1586 340.184C92.0938 353.795 98.6544 370.048 95.8025 386.034C93.3545 399.427 84.7865 410.795 79.4009 423.303C65.0066 456.694 76.2674 498.58 104.334 521.924C124.04 538.31 149.903 545.667 175.436 548.842C215.828 553.86 256.967 549.412 296.612 540.358C320.406 534.953 344.507 527.838 368.828 530.408C389.452 532.601 408.596 541.618 428.082 548.684C451.02 556.987 475.438 562.719 499.759 560.489C529.723 557.75 557.287 541.74 569.38 513.573C583.383 480.946 573.052 443.677 563.175 409.583C552.697 373.223 546.7 338.863 562.122 303.085C575.17 272.785 598.083 234.728 570.494 205.385C552.771 186.539 526.651 180.588 507.152 164.383C489.502 149.743 480.408 130.108 471.424 111.31Z" fill="#407BFF"/>
<path opacity="0.7" d="M471.424 111.31C457.849 82.9007 444.496 56.3822 402.255 51.6796C369.146 48.0436 331.178 47.8133 300.822 63.4845C274.458 77.1074 264.384 108.122 238.79 122.521C218.753 133.78 194.053 131.005 171.14 128.654C123.832 123.806 78.336 141.586 53.501 183.763C32.693 219.105 33.0357 265.695 54.3945 300.709C62.8646 314.611 74.2234 326.573 83.1586 340.184C92.0938 353.795 98.6544 370.048 95.8025 386.034C93.3545 399.427 84.7865 410.795 79.4009 423.303C65.0066 456.694 76.2674 498.58 104.334 521.924C124.04 538.31 149.903 545.667 175.436 548.842C215.828 553.86 256.967 549.412 296.612 540.358C320.406 534.953 344.507 527.838 368.828 530.408C389.452 532.601 408.596 541.618 428.082 548.684C451.02 556.987 475.438 562.719 499.759 560.489C529.723 557.75 557.287 541.74 569.38 513.573C583.383 480.946 573.052 443.677 563.175 409.583C552.697 373.223 546.7 338.863 562.122 303.085C575.17 272.785 598.083 234.728 570.494 205.385C552.771 186.539 526.651 180.588 507.152 164.383C489.502 149.743 480.408 130.108 471.424 111.31Z" fill="white"/>
<path d="M276.257 102.438C276.257 102.438 268.778 92.9119 265.131 92.8634C261.483 92.815 258.044 100.378 255.486 99.9779C252.927 99.5779 250.149 90.9 243.576 92.9483C237.003 94.9966 235.375 105.068 231.006 104.705C226.636 104.341 205.497 67.4114 205.497 67.4114L190.271 76.1742C190.271 76.1742 213.049 112.146 211.079 116.037C209.108 119.927 199.622 115.964 194.359 120.412C189.096 124.86 195.093 131.817 194.09 134.168C193.086 136.52 186.513 135.283 184.64 138.386C182.768 141.489 185.228 152.93 185.228 152.93L227.897 120.594L276.257 102.438Z" fill="white" stroke="#263238" stroke-miterlimit="10"/>
<path d="M176.256 58.4063L172.241 76.356L176.978 85.2642L188.826 79.0952C188.826 79.0952 182.755 71.8232 176.256 58.4063Z" fill="#407BFF" stroke="#263238" stroke-miterlimit="10"/>
<path d="M196.782 47.6922L213.918 54.5764L218.655 63.4846L206.856 69.6658C206.856 69.6658 204.261 60.6 196.782 47.6922Z" fill="#407BFF" stroke="#263238" stroke-miterlimit="10"/>
<path d="M172.584 27.1488C172.584 27.1488 162.878 55.0248 188.814 79.0466L207.958 69.084C207.958 69.084 203.257 36.9054 172.584 27.1488Z" fill="white" stroke="#263238" stroke-miterlimit="10"/>
<path d="M182.376 72.0413C184.361 74.5355 186.533 76.8773 188.875 79.0467L207.958 69.084C207.424 65.9863 206.604 62.9436 205.51 59.994L182.376 72.0413Z" fill="#407BFF" stroke="#263238" stroke-miterlimit="10"/>
<path d="M191.474 50.3658C192.639 46.4211 190.354 42.2881 186.371 41.1346C182.387 39.9811 178.213 42.2438 177.048 46.1886C175.883 50.1333 178.168 54.2662 182.152 55.4197C186.136 56.5733 190.31 54.3105 191.474 50.3658Z" fill="#407BFF" stroke="#263238" stroke-miterlimit="10"/>
<path d="M188.496 46.056C188.06 45.241 187.39 44.5723 186.57 44.1343C185.75 43.6963 184.818 43.5086 183.891 43.5949C182.963 43.6812 182.083 44.0378 181.36 44.6194C180.637 45.2011 180.105 45.9818 179.83 46.8629C179.555 47.7441 179.549 48.6862 179.815 49.5702C180.08 50.4543 180.604 51.2406 181.321 51.8299C182.037 52.4192 182.914 52.7851 183.84 52.8813C184.767 52.9776 185.701 52.7998 186.525 52.3705C187.074 52.0847 187.561 51.6945 187.957 51.2222C188.353 50.75 188.651 50.2049 188.834 49.6183C189.017 49.0317 189.082 48.415 189.024 47.8038C188.966 47.1925 188.786 46.5985 188.496 46.056Z" fill="white" stroke="#263238" stroke-miterlimit="10"/>
<path d="M546.112 252.084L536.112 258.956L536.173 271.003L526.479 263.719L514.925 267.501L518.927 256.12L511.73 246.4L523.897 246.654L531.008 236.873L534.521 248.412L546.112 252.084Z" fill="white" stroke="#263238" stroke-miterlimit="10"/>
<path d="M79.0214 300.431L76.6224 308.684L82.1304 315.326L73.4522 315.617L68.7766 322.853L65.8145 314.768L57.4178 312.611L64.2722 307.327L63.7582 298.746L70.943 303.557L79.0214 300.431Z" fill="white" stroke="#263238" stroke-miterlimit="10"/>
<path d="M219.537 407.147L217.138 415.401L222.646 422.043L213.967 422.334L209.292 429.569L206.342 421.497L197.945 419.328L204.787 414.043L204.273 405.463L211.458 410.274L219.537 407.147Z" fill="white" stroke="#263238" stroke-miterlimit="10"/>
<path d="M421.644 407.147L419.232 415.401L424.74 422.043L416.074 422.334L411.399 429.569L408.437 421.497L400.04 419.328L406.882 414.043L406.368 405.463L413.553 410.274L421.644 407.147Z" fill="white" stroke="#263238" stroke-miterlimit="10"/>
<path d="M121.384 150.567L119.707 156.36L123.563 161.014L117.479 161.208L114.211 166.286L112.131 160.626L106.255 159.099L111.053 155.403L110.686 149.391L115.729 152.773L121.384 150.567Z" fill="white" stroke="#263238" stroke-miterlimit="10"/>
<path d="M233.294 32.2028L228.031 35.2328L227.578 41.2443L223.049 37.2326L217.138 38.6507L219.586 33.1361L216.391 28.0214L222.45 28.6274L226.379 24.0339L227.664 29.9243L233.294 32.2028Z" fill="white" stroke="#263238" stroke-miterlimit="10"/>
<path d="M557.177 270.737L555.488 276.53L559.356 281.184L553.272 281.378L549.992 286.456L547.924 280.796L542.036 279.281L546.834 275.572L546.479 269.561L551.51 272.942L557.177 270.737Z" fill="white" stroke="#263238" stroke-miterlimit="10"/>
<path d="M364.213 57.6306L361.802 65.8843L367.31 72.5261L358.644 72.817L353.969 80.0526L351.006 71.9807L342.61 69.8112L349.452 64.5269L348.938 55.9459L356.123 60.7576L364.213 57.6306Z" fill="white" stroke="#263238" stroke-miterlimit="10"/>
<path d="M312.683 413.643C402.712 413.643 475.695 341.376 475.695 252.229C475.695 163.083 402.712 90.8149 312.683 90.8149C222.654 90.8149 149.671 163.083 149.671 252.229C149.671 341.376 222.654 413.643 312.683 413.643Z" fill="#407BFF" stroke="#263238" stroke-miterlimit="10"/>
<path d="M279.941 401.572C288.682 403.458 297.574 404.578 306.514 404.917" stroke="#263238" stroke-miterlimit="10"/>
<path d="M259.965 395.839C264.384 397.427 268.876 398.833 273.429 400.021" stroke="#263238" stroke-miterlimit="10"/>
<path d="M164.249 210.415C153.873 246.594 157.331 285.29 173.96 319.103C190.589 352.916 219.222 379.473 254.384 393.694" stroke="#263238" stroke-miterlimit="10"/>
<path d="M184.995 166.456C179.421 174.599 174.646 183.252 170.736 192.296" stroke="#263238" stroke-miterlimit="10"/>
<path d="M290.59 180.539L307.212 183.945L312.879 189.763L320.26 190.89L322.61 197.823L320.884 202.525L315.853 204.804L303.515 202.816L303.185 201.313L309.011 197.289L304.984 189.932L293.956 188.43L288.081 183.448L290.59 180.539Z" fill="white" stroke="#263238" stroke-miterlimit="10"/>
<path d="M424.52 332.391L411.337 330.185L395.425 328.185L383.724 330.755L372.267 330.924L360.762 336.197L354.054 338.075L349.893 338.984L342.965 345.214L336.086 349.868L324.458 345.747L324.764 334.706L317.75 333.494L310.198 335.154L308.326 332.088L307.567 325.192L304.091 322.028L298.962 323.943L298.289 328.016L291.961 329.797L284.788 324.319L280.504 315.835L283.821 304.115L294.935 302.455L298.546 304.418L303.087 303.412L307.983 298.806L313.222 299.219L322.622 309.314L325.18 308.369L322.5 299.885L319.231 295.886L318.387 288.614L331.019 279.56L329.795 265.307L334.691 259.113L337.677 249.417L341.288 247.83L348.718 240.315L348.424 237.237L342.463 238.946L340.664 236.195L336.502 237.116L330.382 240.024L332.316 234.498L344.801 227.856L347.065 223.832L354.201 230.898L358.363 233.516L363.259 230.85L359.905 226.486L350.713 222.632L339.44 214.524L328.571 210.246L319.17 210.743L313.626 207.252L307.248 207.082L306.832 208.743L308.509 219.748L310.859 223.166L310.137 235.879L301.251 231.553V226.062L292.487 224.075L288.166 220.705L287.958 210.936L297.15 200.683L295.926 191.532L291.851 192.829L288.46 190.042L286.012 184.685L283.283 184.891L283.123 191.205L279.072 192.878L274.249 180.2L270.81 178.988L265.02 177.909L259.647 182.224L268.79 187.666L271.728 193.726L255.816 186.624L244.115 178.6L241.128 168.65L230.638 167.813L224.176 174.334C222.589 175.836 220.922 177.252 219.182 178.576C217.456 179.788 210.455 182.067 210.455 182.067L210.369 188.757L201.801 191.035L203.478 194.987L217.958 194.162L226.893 200.428L229.83 213.518L228.276 226.026L231.801 238.146L225.326 258.75L229.182 286.541L236.11 301.509L243.698 312.417L249.537 311.92L246.306 306.345L242.279 302.527L238.545 294.71L241.777 293.219L250.075 305.521L256.538 316.659L258.717 326.355L267.823 333.373L282.744 340.014L303.552 340.936L310.896 345.214L316.771 350.195L324.482 352.813L333.295 353.237L341.52 351.032C341.52 351.032 341.986 354.849 342.402 356.728C342.818 358.606 338.962 366.121 338.962 366.121L336.514 374.508L341.41 382.071L350.48 383.61L364.752 393.003L370.542 394.082L371.766 399.693L372.99 402.117C401.342 390.988 425.958 372.18 444.018 347.844L443.614 345.093L449.734 324.489L444.067 322.198L424.52 332.391Z" fill="white" stroke="#263238" stroke-miterlimit="10"/>
<path d="M430.664 176.031L424.924 169.838L417.788 162.772L413.761 151.864L420.811 151.488L420.346 147.67L415.352 148.373L419.085 145.585L423.039 141.949L422.194 138.204L416.319 133.223L413.553 125.381C385.633 103.62 351.301 91.4797 315.776 90.8059C280.251 90.1322 245.475 100.962 216.734 121.648L226.819 125.842L223.037 133.732L216.195 136.811L217.713 147.076L214.934 148.858L212.082 153.803L213.967 160.457L220.565 159.79L219.341 166.723L225.767 165.317L233.613 149.076L233.405 142.846L243.809 139.78L245.449 134.702L256.146 131.175L255.853 124.569L263.699 122.448C263.699 122.448 268.692 118.206 269.819 117.964C272.108 117.95 274.395 118.104 276.661 118.424L283.332 121.661L291.312 119.988L297.187 114.389L306.037 113.177C307.466 113.722 309.006 113.921 310.529 113.758C312.414 113.334 317.493 109.48 317.493 109.48L329.954 113.795L335.241 116.219L336.465 121.83L342.304 121.333L343.43 117.552L348.852 118.764L349.146 121.83L338.485 127.26L346.747 134.071L362.022 138.568L369.366 144.798L377.837 143.719L378.889 139.562L381.741 138.156L370.248 132.835L364.042 133.417L368.608 130.835L362.647 125.478L368.987 123.685L378.302 126.351L382.206 134.908L387.445 138.859L393.283 148.955L402.929 153.112L405.707 165.45L415.646 169.159L416.16 173.316V178.431L419.942 184.66L421.448 187.86L428.118 187.569L429.71 180.552L430.664 176.031Z" fill="white" stroke="#263238" stroke-miterlimit="10"/>
<path d="M427.176 137.271L427.653 139.416L427.115 145.816L429.416 150.809L433.908 151.391L435.499 158.493L430.603 157.621L433.994 178.067L431.313 187.29L436.674 197.095L442.598 200.501L447.127 220.705L455.561 235.322L463.529 246.133L472.721 246.46L474.067 238.316L475.083 237.104C474.437 230.428 473.378 223.798 471.913 217.251C465.137 186.864 449.596 159.079 427.176 137.271Z" fill="white" stroke="#263238" stroke-miterlimit="10"/>
<path d="M339.354 154.118L311.998 148.749L301.128 151.536L300.076 159.22L294.458 155.354L286.575 159.051L288.582 171.559L296.465 174.928L299.782 166.747L306.71 171.11L320.688 178.625L325.376 188.975L337.971 199.156L353.246 193.047L351.606 187.533L346.784 181.921L342.671 167.123L345.021 159.935L339.354 154.118Z" fill="white" stroke="#263238" stroke-miterlimit="10"/>
<path d="M361.594 157.863L355.596 157.608L351.606 162.808L356.686 173.061L361.594 171.983V157.863Z" fill="white" stroke="#263238" stroke-miterlimit="10"/>
<path d="M398.314 157.245L383.969 153.33L380.309 149.427L377.543 151.221L381.864 158.118L386.319 167.341L392.488 168.335L393.283 166.589L388.62 161.729L399.281 163.305L398.314 157.245Z" fill="white" stroke="#263238" stroke-miterlimit="10"/>
<path d="M318.313 316.502L317.138 318.332L329.219 319.204L334.923 323.446L342.267 322.61L343.993 317.92L334.972 318.332L318.313 316.502Z" fill="white" stroke="#263238" stroke-miterlimit="10"/>
<path d="M353.516 316.211L346.086 320.198L347.898 322.95L357.714 320.78L358.938 317.374L355.621 318.502L353.516 316.211Z" fill="white" stroke="#263238" stroke-miterlimit="10"/>
<path d="M507.96 93.9542L437.543 75.4349L454.398 96.96L507.96 93.9542Z" fill="white" stroke="#263238" stroke-linecap="round" stroke-linejoin="round"/>
<path d="M454.398 96.96L453.871 111.443L507.96 93.9542L454.398 96.96Z" fill="white" stroke="#263238" stroke-linecap="round" stroke-linejoin="round"/>
<path d="M460.775 104.196L453.871 111.443L507.96 93.9542L460.775 104.196Z" fill="white" stroke="#263238" stroke-linecap="round" stroke-linejoin="round"/>
<path d="M507.96 93.9542L460.775 104.196L473.076 125.418L507.96 93.9542Z" fill="white" stroke="#263238" stroke-linecap="round" stroke-linejoin="round"/>
<path d="M442.806 108.122L440.995 108.365" stroke="#263238" stroke-linecap="round" stroke-linejoin="round"/>
<path d="M437.372 108.874C397.2 114.546 146.182 152.179 93.7584 213.312C47.1485 267.67 124.603 282.893 142.718 285.644" stroke="#263238" stroke-linecap="round" stroke-linejoin="round" stroke-dasharray="2.99 2.99"/>
<path d="M144.432 285.899C145.595 286.068 146.244 286.129 146.244 286.129" stroke="#263238" stroke-linecap="round" stroke-linejoin="round"/>
<path d="M169.573 92.2938C169.573 90.186 169.074 88.1076 168.117 86.2249C167.16 84.3422 165.771 82.7076 164.061 81.4518C162.352 80.196 160.369 79.354 158.272 78.9932C156.175 78.6324 154.021 78.7627 151.984 79.3739C150.612 75.5231 148.069 72.1877 144.705 69.8258C141.341 67.4639 137.321 66.1916 133.197 66.1836C129.073 66.1757 125.048 67.4324 121.675 69.7813C118.302 72.1301 115.746 75.4557 114.358 79.3011C113.164 78.9632 111.928 78.7919 110.686 78.7921C107.352 78.8415 104.152 80.099 101.69 82.3268C99.229 84.5547 97.6775 87.5984 97.3293 90.8823C96.9811 94.1663 97.8602 97.4627 99.8005 100.148C101.741 102.834 104.608 104.722 107.859 105.456L159.12 105.444C162.102 104.735 164.755 103.052 166.652 100.666C168.549 98.2798 169.578 95.3303 169.573 92.2938Z" fill="white" stroke="#263238" stroke-miterlimit="10"/>
<path d="M181.776 98.9961C181.778 97.9587 181.534 96.9353 181.063 96.0083C180.593 95.0812 179.909 94.2765 179.068 93.6587C178.226 93.041 177.249 92.6274 176.217 92.4514C175.184 92.2754 174.124 92.3418 173.123 92.6453C172.459 90.7358 171.211 89.0791 169.551 87.9062C167.891 86.7334 165.902 86.103 163.863 86.103C161.824 86.103 159.835 86.7334 158.175 87.9062C156.515 89.0791 155.267 90.7358 154.603 92.6453C153.736 92.4028 152.829 92.3358 151.935 92.4482C151.041 92.5606 150.18 92.8502 149.401 93.2996C148.623 93.749 147.944 94.349 147.405 95.0639C146.866 95.7788 146.479 96.5938 146.265 97.4604C146.051 98.327 146.015 99.2274 146.161 100.108C146.306 100.988 146.629 101.831 147.11 102.585C147.591 103.339 148.221 103.989 148.962 104.497C149.702 105.005 150.539 105.36 151.421 105.541H176.635C178.115 105.189 179.43 104.35 180.364 103.16C181.298 101.971 181.796 100.503 181.776 98.9961Z" fill="white" stroke="#263238" stroke-miterlimit="10"/>
<path d="M542.354 169.353C542.354 167.245 541.855 165.167 540.898 163.284C539.941 161.401 538.552 159.767 536.843 158.511C535.133 157.255 533.15 156.413 531.053 156.052C528.956 155.691 526.803 155.822 524.766 156.433C523.387 152.591 520.842 149.265 517.481 146.911C514.12 144.556 510.106 143.287 505.989 143.277C501.872 143.268 497.852 144.519 494.48 146.859C491.108 149.198 488.549 152.513 487.152 156.348C485.958 156.01 484.722 155.838 483.48 155.839C480.146 155.888 476.945 157.146 474.484 159.374C472.023 161.602 470.471 164.645 470.123 167.929C469.775 171.213 470.654 174.51 472.594 177.195C474.534 179.881 477.401 181.769 480.653 182.503L531.914 182.406C534.877 181.699 537.516 180.029 539.408 177.663C541.301 175.297 542.338 172.371 542.354 169.353Z" fill="white" stroke="#263238" stroke-miterlimit="10"/>
<path d="M554.558 176.067C554.558 174.306 553.851 172.616 552.593 171.371C551.335 170.125 549.629 169.425 547.85 169.425C547.192 169.417 546.537 169.502 545.904 169.68C545.241 167.771 543.992 166.114 542.332 164.941C540.672 163.768 538.684 163.138 536.644 163.138C534.605 163.138 532.617 163.768 530.957 164.941C529.297 166.114 528.048 167.771 527.385 169.68C526.803 169.519 526.202 169.437 525.598 169.438C523.94 169.438 522.342 170.045 521.11 171.144C519.879 172.242 519.101 173.753 518.928 175.385C518.754 177.017 519.197 178.655 520.171 179.983C521.145 181.31 522.581 182.234 524.202 182.576H549.429C550.9 182.223 552.208 181.388 553.139 180.206C554.07 179.025 554.57 177.566 554.558 176.067Z" fill="white" stroke="#263238" stroke-miterlimit="10"/>
<path d="M150.797 288.371C150.8 286.263 150.305 284.183 149.35 282.299C148.395 280.414 147.008 278.778 145.299 277.52C143.59 276.263 141.607 275.42 139.509 275.058C137.412 274.697 135.258 274.827 133.22 275.439C131.845 271.59 129.3 268.256 125.936 265.896C122.571 263.535 118.551 262.264 114.427 262.256C110.303 262.248 106.278 263.504 102.904 265.851C99.5303 268.199 96.9725 271.522 95.5822 275.366C94.3868 275.034 93.1517 274.863 91.9102 274.857C88.5758 274.907 85.3754 276.164 82.9141 278.392C80.4528 280.62 78.9014 283.664 78.5531 286.948C78.2049 290.232 79.0841 293.528 81.0243 296.213C82.9646 298.899 85.8315 300.787 89.0827 301.521L140.344 301.424C143.313 300.725 145.958 299.058 147.854 296.691C149.75 294.323 150.786 291.393 150.797 288.371Z" fill="white" stroke="#263238" stroke-miterlimit="10"/>
<path d="M163 295.074C163 293.312 162.293 291.623 161.035 290.377C159.778 289.132 158.071 288.432 156.293 288.432C155.634 288.432 154.978 288.526 154.346 288.711C153.68 286.805 152.431 285.153 150.773 283.984C149.114 282.814 147.129 282.186 145.093 282.186C143.057 282.186 141.072 282.814 139.413 283.984C137.755 285.153 136.505 286.805 135.84 288.711C134.975 288.474 134.071 288.412 133.181 288.527C132.292 288.643 131.435 288.934 130.661 289.384C129.887 289.833 129.212 290.432 128.676 291.144C128.14 291.856 127.754 292.668 127.54 293.53C127.326 294.393 127.289 295.29 127.432 296.167C127.574 297.044 127.893 297.884 128.369 298.637C128.845 299.39 129.468 300.04 130.203 300.55C130.937 301.061 131.768 301.42 132.645 301.606H157.871C159.347 301.253 160.657 300.414 161.589 299.227C162.52 298.041 163.018 296.576 163 295.074Z" fill="white" stroke="#263238" stroke-miterlimit="10"/>
</svg>
